<?xml version="1.0" encoding="utf-8"?>
<!-- Generator: Adobe Illustrator 15.1.0, SVG Export Plug-In . SVG Version: 6.00 Build 0)  -->
<!DOCTYPE svg PUBLIC "-//W3C//DTD SVG 1.1//EN" "http://www.w3.org/Graphics/SVG/1.1/DTD/svg11.dtd">
<svg version="1.1" id="svg-source" xmlns="http://www.w3.org/2000/svg" xmlns:xlink="http://www.w3.org/1999/xlink" x="0px" y="0px"
	 width="104px" height="104px" viewBox="153.5 148.5 104 104" enable-background="new 153.5 148.5 104 104" xml:space="preserve">
<g id="clock-time">
	<g id="Expanded">
		<g>
			<g>
				<path fill="#F2F2F2" d="M205.5,158.722c23.036,0,41.778,18.742,41.778,41.778s-18.742,41.778-41.778,41.778
					c-23.033,0-41.778-18.742-41.778-41.778C163.722,177.467,182.467,158.722,205.5,158.722 M205.5,153.5c-25.956,0-47,21.044-47,47
					c0,25.958,21.044,47,47,47c25.953,0,47-21.042,47-47C252.5,174.544,231.453,153.5,205.5,153.5L205.5,153.5z"/>
			</g>
			<g>
				<path fill="#F2F2F2" d="M221.167,203.111h-18.278v-28.723c0-1.448,1.168-2.613,2.611-2.613s2.611,1.165,2.611,2.613v23.5h13.055
					c1.443,0,2.611,1.163,2.611,2.606C223.778,201.943,222.61,203.111,221.167,203.111z"/>
			</g>
		</g>
	</g>
</g>
</svg>
