<?xml version="1.0" encoding="utf-8"?>
<!-- Generator: Adobe Illustrator 15.1.0, SVG Export Plug-In . SVG Version: 6.00 Build 0)  -->
<!DOCTYPE svg PUBLIC "-//W3C//DTD SVG 1.1//EN" "http://www.w3.org/Graphics/SVG/1.1/DTD/svg11.dtd">
<svg version="1.1" id="Layer_1" xmlns="http://www.w3.org/2000/svg" xmlns:xlink="http://www.w3.org/1999/xlink" x="0px" y="0px"
	 width="78.947px" height="106.579px" viewBox="0 0 78.947 106.579" enable-background="new 0 0 78.947 106.579"
	 xml:space="preserve">
<g id="lock-locker">
	<g id="Expanded_1_">
		<g>
			<g>
				<circle fill="#2A678C" cx="39.895" cy="66.931" r="3.999"/>
			</g>
			<g>
				<path fill="#2A678C" d="M39.895,82.93c-1.107,0-2-0.895-2-1.998v-12c0-1.107,0.893-2.002,2-2.002s2,0.895,2,2.002v12
					C41.895,82.036,41.002,82.93,39.895,82.93z"/>
			</g>
			<g>
				<path fill="#2A678C" d="M75.895,102.93h-72v-60h72V102.93z M7.895,98.932h63.998V46.93H7.895V98.932z"/>
			</g>
			<g>
				<path fill="#2A678C" d="M63.895,44.932h-4V30.93c0-11.027-8.973-20-20-20s-20,8.971-20,20v14.002h-4V30.93
					c0-13.234,10.764-24,24-24c13.234,0,24,10.766,24,24V44.932z"/>
			</g>
		</g>
	</g>
</g>
</svg>
